<?xml version="1.0" standalone="no"?>
<!DOCTYPE svg PUBLIC "-//W3C//DTD SVG 20010904//EN"
 "http://www.w3.org/TR/2001/REC-SVG-20010904/DTD/svg10.dtd">
<svg version="1.0" xmlns="http://www.w3.org/2000/svg"
 width="400.000000pt" height="400.000000pt" viewBox="0 0 400.000000 400.000000"
 preserveAspectRatio="xMidYMid meet">

<g transform="translate(0.000000,400.000000) scale(0.100000,-0.100000)"
fill="#000000" stroke="none">
<path d="M1250 3475 l0 -125 -125 0 -125 0 0 -125 0 -125 -125 0 -125 0 0
-125 0 -125 -125 0 -125 0 0 -250 0 -250 -125 0 -125 0 0 -250 0 -250 500 0
500 0 0 -500 0 -500 125 0 125 0 0 -125 0 -125 125 0 125 0 0 -125 0 -125 500
0 500 0 0 125 0 125 125 0 125 0 0 125 0 125 125 0 125 0 0 250 0 250 125 0
125 0 0 125 0 125 125 0 125 0 0 250 0 250 -375 0 -375 0 0 125 0 125 125 0
125 0 0 500 0 500 -125 0 -125 0 0 125 0 125 -875 0 -875 0 0 -125z m1000
-250 l0 -125 250 0 250 0 0 -375 0 -375 -125 0 -125 0 0 -125 0 -125 -125 0
-125 0 0 -125 0 -125 250 0 250 0 0 -250 0 -250 125 0 125 0 0 -250 0 -250
-125 0 -125 0 0 -125 0 -125 -500 0 -500 0 0 250 0 250 -125 0 -125 0 0 250 0
250 125 0 125 0 0 375 0 375 125 0 125 0 0 125 0 125 -250 0 -250 0 0 -125 0
-125 -375 0 -375 0 0 -125 0 -125 -125 0 -125 0 0 125 0 125 125 0 125 0 0
125 0 125 250 0 250 0 0 125 0 125 375 0 375 0 0 -125 0 -125 125 0 125 0 0
250 0 250 -125 0 -125 0 0 125 0 125 125 0 125 0 0 -125z"/>
<path d="M1750 1350 l0 -250 250 0 250 0 0 125 0 125 -125 0 -125 0 0 125 0
125 -125 0 -125 0 0 -250z"/>
</g>
</svg>
